<svg width="50" height="51" viewBox="0 0 50 51" fill="none" xmlns="http://www.w3.org/2000/svg">
<path fill-rule="evenodd" clip-rule="evenodd" d="M12.3903 3.86493C12.3903 3.95318 12.3903 4.01518 12.3903 4.07718C12.3903 10.8937 12.3886 17.7104 12.3931 24.5269C12.3936 25.2214 12.4063 25.9177 12.4588 26.6097C12.5518 27.8337 12.8538 29.0129 13.3256 30.1462C14.4671 32.8879 16.3456 34.9752 18.9388 36.4157C20.1228 37.0734 21.3908 37.5074 22.7236 37.7484C23.6786 37.9212 24.6426 37.9789 25.6103 37.9242C27.8253 37.7987 29.8748 37.1467 31.7351 35.9334C34.1556 34.3547 35.8443 32.1952 36.7998 29.4674C37.1608 28.4372 37.3713 27.3744 37.4433 26.2844C37.6198 23.6159 37.0298 21.1294 35.6291 18.8512C34.1616 16.4642 32.1108 14.7562 29.5068 13.7182C28.5046 13.3187 27.4648 13.0629 26.3923 12.9444C23.4423 12.6189 20.7098 13.2442 18.1961 14.8232C18.1691 14.8402 18.1398 14.8539 18.0981 14.8764C18.0956 14.8197 18.0918 14.7759 18.0918 14.7322C18.0916 10.3447 18.0921 5.95718 18.0886 1.56968C18.0886 1.45543 18.1256 1.41243 18.2298 1.38368C19.3546 1.07418 20.4946 0.839431 21.6503 0.683681C23.0571 0.493931 24.4711 0.433681 25.8888 0.484431C27.0298 0.525181 28.1631 0.647681 29.2886 0.846431C32.1566 1.35243 34.8581 2.32343 37.3731 3.78943C41.9023 6.42893 45.2916 10.1234 47.5338 14.8644C48.4566 16.8157 49.0941 18.8594 49.4766 20.9827C49.7943 22.7477 49.9183 24.5279 49.8488 26.3187C49.6846 30.5657 48.5233 34.5219 46.3458 38.1744C44.9078 40.5862 43.1071 42.6919 40.9573 44.4987C39.0406 46.1092 36.9283 47.4009 34.6236 48.3774C33.0948 49.0252 31.5153 49.5109 29.8883 49.8402C27.9741 50.2274 26.0388 50.3919 24.0883 50.3129C23.2451 50.2789 22.4013 50.2004 21.5636 50.0959C19.3716 49.8224 17.2618 49.2312 15.2288 48.3699C12.6646 47.2834 10.3446 45.8092 8.27557 43.9449C5.56857 41.5059 3.48507 38.6162 2.03607 35.2712C1.24732 33.4497 0.691572 31.5594 0.356822 29.6027C0.0685717 27.9174 -0.0504283 26.2197 0.0195717 24.5134C0.257322 18.7227 2.25182 13.6099 5.99982 9.19018C7.78807 7.08168 9.88932 5.33643 12.2691 3.92793C12.3001 3.90968 12.3331 3.89443 12.3903 3.86493Z" fill="#FFC700"/>
<path fill-rule="evenodd" clip-rule="evenodd" d="M24.9319 32.9964C20.7406 32.9951 17.3346 29.5871 17.3391 25.3931C17.3436 21.1694 20.7889 17.7469 25.0434 17.8046C29.1681 17.8606 32.5316 21.2166 32.5299 25.4111C32.5281 29.5959 29.1181 32.9976 24.9319 32.9964Z" fill="#FFC700"/>
</svg>
